<mxfile host="65bd71144e">
    <diagram id="ek3CJzyLlA5unndnA4xw" name="Page-1">
        <mxGraphModel dx="682" dy="744" grid="1" gridSize="10" guides="1" tooltips="1" connect="1" arrows="1" fold="1" page="1" pageScale="1" pageWidth="850" pageHeight="1100" math="0" shadow="0">
            <root>
                <mxCell id="0"/>
                <mxCell id="1" parent="0"/>
                <mxCell id="4" value="ns:Quantity" style="rounded=0;whiteSpace=wrap;html=1;snapToPoint=1;points=[[0.1,0],[0.2,0],[0.3,0],[0.4,0],[0.5,0],[0.6,0],[0.7,0],[0.8,0],[0.9,0],[0,0.1],[0,0.3],[0,0.5],[0,0.7],[0,0.9],[0.1,1],[0.2,1],[0.3,1],[0.4,1],[0.5,1],[0.6,1],[0.7,1],[0.8,1],[0.9,1],[1,0.1],[1,0.3],[1,0.5],[1,0.7],[1,0.9]];" vertex="1" parent="1">
                    <mxGeometry x="140" y="120" width="100" height="30" as="geometry"/>
                </mxCell>
                <mxCell id="5" value="" style="endArrow=classic;html=1;exitX=0.5;exitY=1;exitDx=0;exitDy=0;entryX=0.5;entryY=0;entryDx=0;entryDy=0;endSize=8;arcSize=0;" edge="1" source="4" target="19" parent="1">
                    <mxGeometry width="50" height="50" relative="1" as="geometry">
                        <mxPoint x="120" y="238.32999999999998" as="sourcePoint"/>
                        <mxPoint x="190" y="270" as="targetPoint"/>
                    </mxGeometry>
                </mxCell>
                <mxCell id="6" value="&lt;div&gt;ns:hasQuantityValue&lt;/div&gt;" style="text;html=1;align=center;verticalAlign=middle;resizable=0;points=[];labelBackgroundColor=#ffffff;" vertex="1" connectable="0" parent="5">
                    <mxGeometry x="-0.1269" relative="1" as="geometry">
                        <mxPoint x="4.17" as="offset"/>
                    </mxGeometry>
                </mxCell>
                <mxCell id="9" value="" style="endArrow=classic;html=1;exitX=1;exitY=0.5;exitDx=0;exitDy=0;entryX=0;entryY=0.5;entryDx=0;entryDy=0;endSize=8;arcSize=0;" edge="1" source="4" target="14" parent="1">
                    <mxGeometry width="50" height="50" relative="1" as="geometry">
                        <mxPoint x="310" y="134.5" as="sourcePoint"/>
                        <mxPoint x="484" y="134.5" as="targetPoint"/>
                    </mxGeometry>
                </mxCell>
                <mxCell id="10" value="&lt;div&gt;ns:hasQuantityKind&lt;/div&gt;" style="text;html=1;align=center;verticalAlign=middle;resizable=0;points=[];labelBackgroundColor=#ffffff;" vertex="1" connectable="0" parent="9">
                    <mxGeometry x="-0.1269" relative="1" as="geometry">
                        <mxPoint x="4.17" as="offset"/>
                    </mxGeometry>
                </mxCell>
                <mxCell id="11" value="" style="endArrow=classic;html=1;exitX=1;exitY=0.5;exitDx=0;exitDy=0;endSize=8;arcSize=0;entryX=0;entryY=0.5;entryDx=0;entryDy=0;" edge="1" parent="1" source="19" target="15">
                    <mxGeometry width="50" height="50" relative="1" as="geometry">
                        <mxPoint x="240" y="285" as="sourcePoint"/>
                        <mxPoint x="480" y="220" as="targetPoint"/>
                    </mxGeometry>
                </mxCell>
                <mxCell id="12" value="&lt;div&gt;hasUnit&lt;/div&gt;" style="text;html=1;align=center;verticalAlign=middle;resizable=0;points=[];labelBackgroundColor=#ffffff;" vertex="1" connectable="0" parent="11">
                    <mxGeometry x="-0.1269" relative="1" as="geometry">
                        <mxPoint x="4.17" as="offset"/>
                    </mxGeometry>
                </mxCell>
                <mxCell id="14" value="ns:QuantityKind" style="rounded=0;whiteSpace=wrap;html=1;snapToPoint=1;points=[[0.1,0],[0.2,0],[0.3,0],[0.4,0],[0.5,0],[0.6,0],[0.7,0],[0.8,0],[0.9,0],[0,0.1],[0,0.3],[0,0.5],[0,0.7],[0,0.9],[0.1,1],[0.2,1],[0.3,1],[0.4,1],[0.5,1],[0.6,1],[0.7,1],[0.8,1],[0.9,1],[1,0.1],[1,0.3],[1,0.5],[1,0.7],[1,0.9]];" vertex="1" parent="1">
                    <mxGeometry x="500" y="120.00000000000023" width="120" height="30" as="geometry"/>
                </mxCell>
                <mxCell id="15" value="ns:Unit" style="rounded=0;whiteSpace=wrap;html=1;snapToPoint=1;points=[[0.1,0],[0.2,0],[0.3,0],[0.4,0],[0.5,0],[0.6,0],[0.7,0],[0.8,0],[0.9,0],[0,0.1],[0,0.3],[0,0.5],[0,0.7],[0,0.9],[0.1,1],[0.2,1],[0.3,1],[0.4,1],[0.5,1],[0.6,1],[0.7,1],[0.8,1],[0.9,1],[1,0.1],[1,0.3],[1,0.5],[1,0.7],[1,0.9]];" vertex="1" parent="1">
                    <mxGeometry x="500" y="200.00000000000023" width="120" height="30" as="geometry"/>
                </mxCell>
                <mxCell id="18" value="ns:hasNumericValue: xsd:double" style="rounded=0;whiteSpace=wrap;html=1;snapToPoint=1;points=[[0.1,0],[0.2,0],[0.3,0],[0.4,0],[0.5,0],[0.6,0],[0.7,0],[0.8,0],[0.9,0],[0,0.1],[0,0.3],[0,0.5],[0,0.7],[0,0.9],[0.1,1],[0.2,1],[0.3,1],[0.4,1],[0.5,1],[0.6,1],[0.7,1],[0.8,1],[0.9,1],[1,0.1],[1,0.3],[1,0.5],[1,0.7],[1,0.9]];" vertex="1" parent="1">
                    <mxGeometry x="100.5" y="319.9999999999999" width="179" height="30" as="geometry"/>
                </mxCell>
                <mxCell id="19" value="ns:Class1" style="rounded=0;whiteSpace=wrap;html=1;snapToPoint=1;points=[[0.1,0],[0.2,0],[0.3,0],[0.4,0],[0.5,0],[0.6,0],[0.7,0],[0.8,0],[0.9,0],[0,0.1],[0,0.3],[0,0.5],[0,0.7],[0,0.9],[0.1,1],[0.2,1],[0.3,1],[0.4,1],[0.5,1],[0.6,1],[0.7,1],[0.8,1],[0.9,1],[1,0.1],[1,0.3],[1,0.5],[1,0.7],[1,0.9]];" vertex="1" parent="1">
                    <mxGeometry x="100.5" y="289.9999999999999" width="179" height="30" as="geometry"/>
                </mxCell>
            </root>
        </mxGraphModel>
    </diagram>
</mxfile>